<?xml version="1.0" encoding="UTF-8" standalone="no"?>
<svg
   xmlns:dc="http://purl.org/dc/elements/1.1/"
   xmlns:cc="http://creativecommons.org/ns#"
   xmlns:rdf="http://www.w3.org/1999/02/22-rdf-syntax-ns#"
   xmlns:svg="http://www.w3.org/2000/svg"
   xmlns="http://www.w3.org/2000/svg"
   xmlns:sodipodi="http://sodipodi.sourceforge.net/DTD/sodipodi-0.dtd"
   xmlns:inkscape="http://www.inkscape.org/namespaces/inkscape"
   version="1.1"
   id="svg44"
   xml:space="preserve"
   width="259.74313"
   height="303.91312"
   viewBox="0 0 259.74313 303.91312"
   sodipodi:docname="Logo FOCR.svg"
   inkscape:version="1.0.1 (3bc2e813f5, 2020-09-07)"><metadata
     id="metadata50"><rdf:RDF><cc:Work
         rdf:about=""><dc:format>image/svg+xml</dc:format><dc:type
           rdf:resource="http://purl.org/dc/dcmitype/StillImage" /><dc:title></dc:title></cc:Work></rdf:RDF></metadata><defs
     id="defs48"><clipPath
       clipPathUnits="userSpaceOnUse"
       id="clipPath60"><path
         d="M 0,0 H 283.465 V 283.465 H 0 Z"
         id="path58" /></clipPath></defs><sodipodi:namedview
     pagecolor="#ffffff"
     bordercolor="#666666"
     borderopacity="1"
     objecttolerance="10"
     gridtolerance="10"
     guidetolerance="10"
     inkscape:pageopacity="0"
     inkscape:pageshadow="2"
     inkscape:window-width="1920"
     inkscape:window-height="1017"
     id="namedview46"
     showgrid="false"
     inkscape:zoom="1.1244774"
     inkscape:cx="120.89068"
     inkscape:cy="43.961609"
     inkscape:window-x="-8"
     inkscape:window-y="-8"
     inkscape:window-maximized="1"
     inkscape:current-layer="g52" /><g
     id="g52"
     inkscape:groupmode="layer"
     inkscape:label="Logo FOCR"
     transform="matrix(1.3333333,0,0,-1.3333333,-59.105065,340.9337)"><g
       id="g54"><g
         id="g56"
         clip-path="url(#clipPath60)"><g
           id="g62"
           transform="translate(152.2218,239.0004)"><path
             d="m 0,0 c 0,0 -15.165,-4.226 -21.38,-16.656 -6.215,-12.43 -10.441,-24.861 -4.723,-31.324 5.718,-6.464 14.419,-7.458 25.109,-0.995 10.689,6.464 18.396,22.126 18.396,27.098 C 17.402,-16.905 18.397,0.249 0,0"
             style="fill:#fcce06;fill-opacity:1;fill-rule:nonzero;stroke:none"
             id="path64" /></g><g
           id="g66"
           transform="translate(100.7612,238.7518)"><path
             d="m 0,0 c 0,0 2.237,-12.927 2.237,-15.413 0,-2.486 -1.988,-25.109 -2.734,-28.838 -0.746,-3.729 -4.226,-25.109 -4.226,-29.832 0,-4.724 3.48,-15.911 12.181,-21.132 8.701,-5.22 21.877,-7.209 34.556,0.995 12.678,8.204 45.991,37.787 51.709,46.737 5.718,8.95 25.109,33.561 25.109,33.561 l 16.656,22.623 c 0,0 1.74,3.481 0.995,4.475 -0.746,0.994 -2.984,1.74 -2.984,1.74 0,0 -0.994,0.249 -1.74,0 -0.746,-0.249 -1.491,-0.746 -1.491,-0.746 L 113.86,-3.48 96.209,-22.126 78.31,-38.533 63.642,-50.715 c 0,0 -14.667,-9.695 -18.894,-11.436 -4.226,-1.74 -11.684,-3.729 -15.662,-2.983 -3.977,0.746 -9.446,4.724 -10.689,6.961 -1.243,2.237 -4.475,8.204 -4.475,16.408 0,8.204 -1.243,26.103 -1.492,30.578 C 12.182,-6.712 8.204,-0.249 6.215,0.497 4.226,1.243 0,0 0,0"
             style="fill:#2f7c3b;fill-opacity:1;fill-rule:nonzero;stroke:none"
             id="path68" /></g><g
           id="g70"
           transform="translate(178.5775,102.2914)"><path
             d="m 0,0 c 0.444,-5.891 0.089,-6.439 -4.897,-7.847 -8.172,-2.307 -16.371,0.919 -20.98,8.257 -4.299,6.844 -3.722,15.057 1.49,21.172 5.382,6.316 14.466,8.228 22.067,5.167 3.643,-1.466 2.821,-3.981 2.735,-7.072 -7.763,4.396 -15.088,5.372 -20.885,-2.56 -3.229,-4.42 -2.629,-11.149 0.894,-15.441 C -15.276,-3.563 -10.232,-4.029 0,0"
             style="fill:#231f20;fill-opacity:1;fill-rule:nonzero;stroke:none"
             id="path72" /></g><g
           id="g74"
           transform="translate(86.4009,113.2937)"><path
             d="m 0,0 c 0,4.649 0.117,9.3 -0.047,13.942 -0.09,2.543 0.997,3.133 3.273,3.039 4.036,-0.165 8.081,-0.198 12.12,-0.135 2.049,0.032 3.109,-0.376 3.171,-2.798 0.066,-2.56 -1.359,-2.356 -3.005,-2.326 -2.083,0.037 -4.185,-0.16 -6.249,0.045 C 5.861,12.104 5.997,10.032 5.92,7.639 5.841,5.216 6.347,3.988 9.102,4.253 11.406,4.473 13.751,4.285 16.077,4.235 18.124,4.19 18.694,3.058 18.589,1.109 18.486,-0.81 17.698,-1.412 15.846,-1.315 13.4,-1.186 10.938,-1.403 8.493,-1.275 6.576,-1.174 5.882,-1.897 5.9,-3.783 5.936,-7.578 5.717,-11.378 5.812,-15.171 c 0.056,-2.217 -0.945,-2.675 -2.888,-2.644 -1.75,0.028 -2.904,0.017 -3.028,2.398 C -0.372,-10.267 -0.069,-5.138 0,0"
             style="fill:#231f20;fill-opacity:1;fill-rule:nonzero;stroke:none"
             id="path76" /></g><g
           id="g78"
           transform="translate(229.1002,117.1962)"><path
             d="M 0,0 C 3.112,-1.947 5.759,-3.603 8.917,-5.579 5.368,-6.701 2.237,-7.69 -1.165,-8.765 c 1.809,-2.315 4.585,-2.244 6.733,-3.367 0.915,-0.478 2.255,-0.559 1.77,-2.175 -0.577,-1.923 -1.88,-0.684 -2.635,-0.421 -4.697,1.639 -9.339,3.44 -14.412,5.341 2.466,1.957 5.203,2.087 7.586,3.048 1.174,0.474 3.068,0.23 3.235,1.726 0.133,1.197 -1.612,1.591 -2.578,2.283 -2.069,1.478 -4.607,2.244 -6.699,4.439 C -2.653,3.748 2.792,3.989 8.193,4.5 8.931,4.57 9.402,4.294 9.464,3.575 9.565,2.392 8.897,1.921 7.785,1.607 5.43,0.941 2.843,1.643 0,0"
             style="fill:#231f20;fill-opacity:1;fill-rule:nonzero;stroke:none"
             id="path80" /></g><g
           id="g82"
           transform="translate(82.0861,55.7482)"><path
             d="M 0,0 C 2.758,2.54 4.803,4.444 6.873,6.321 7.702,7.074 8.477,7.867 9.602,6.525 10.643,5.283 9.592,4.734 8.968,4.148 5.228,0.645 1.437,-2.803 -3.014,-6.892 c 0,5.392 0.038,9.96 -0.033,14.528 -0.013,0.872 0.66,2.15 -0.557,2.583 -1.02,0.364 -1.732,-0.672 -2.453,-1.304 -1.568,-1.374 -3.11,-2.776 -4.682,-4.144 -0.732,-0.637 -1.434,-0.798 -2.194,0.079 -0.756,0.872 -0.519,1.561 0.202,2.212 3.976,3.589 7.74,7.428 12.46,10.846 C 0.444,12.046 -0.385,6.493 0,0"
             style="fill:#231f20;fill-opacity:1;fill-rule:nonzero;stroke:none"
             id="path84" /></g><g
           id="g86"
           transform="translate(182.9431,105.8604)"><path
             d="m 0,0 c 0,2.687 -0.036,5.374 0.01,8.06 0.043,2.537 2.723,4.216 4.181,2.432 1.587,-1.942 2.343,-0.665 3.467,-0.113 1.498,0.736 3.038,1.062 4.571,0.309 0.845,-0.415 0.38,-1.275 0.278,-1.978 C 12.221,6.725 10.832,6.46 9.143,6.201 6.023,5.722 4.572,3.367 4.831,-1.556 4.954,-3.902 4.6,-6.189 4.712,-8.499 c 0.082,-1.684 -0.138,-2.769 -2.259,-2.809 -2.176,-0.042 -2.743,0.958 -2.701,2.869 0.061,2.813 0.015,5.627 0.015,8.441 C -0.156,0.001 -0.078,0.001 0,0"
             style="fill:#231f20;fill-opacity:1;fill-rule:nonzero;stroke:none"
             id="path88" /></g><g
           id="g90"
           transform="translate(218.1534,140.8668)"><path
             d="m 0,0 c 2.898,5.694 5.393,10.598 8.057,15.831 -3.297,0.072 -5.689,-1.308 -8.255,-1.948 -1.122,-0.28 -2.601,-0.936 -2.994,0.899 -0.335,1.565 1.12,1.613 2.125,1.931 4.758,1.506 9.519,3 14.891,4.691 C 11.817,15.611 8.445,11.12 6.25,5.764 9.385,5.626 11.994,7.003 14.756,7.587 15.768,7.801 16.93,8.433 17.545,6.879 18.277,5.023 16.605,5.182 15.772,4.912 10.807,3.3 5.808,1.795 0,0"
             style="fill:#231f20;fill-opacity:1;fill-rule:nonzero;stroke:none"
             id="path92" /></g><g
           id="g94"
           transform="translate(60.5417,137.7011)"><path
             d="M 0,0 C 0.209,0.859 0.493,1.92 0.722,2.993 1.006,4.319 0.889,5.421 -0.747,5.812 -2.332,6.191 -2.738,5.424 -3.218,4.047 -3.802,2.373 -3.412,-1.016 -5.484,-0.555 c -2.696,0.599 -0.58,3.404 -0.388,5.199 0.259,2.419 -1.407,2.35 -2.906,2.881 -1.927,0.683 -2.387,-0.35 -2.752,-1.83 -0.403,-1.641 -0.054,-4.702 -2.119,-4.246 -2.667,0.59 -0.558,3.221 -0.451,4.967 0.053,0.854 0.234,1.703 0.405,2.544 0.346,1.702 0.798,2.812 3.123,2.14 C -6.347,9.879 -2.014,9.004 2.311,8.177 3.952,7.863 4.324,7.242 3.944,5.714 3.413,3.576 3.04,1.398 2.597,-0.762 2.413,-1.654 2.145,-2.44 0.953,-2.23 -0.352,-2.001 0.08,-1.023 0,0"
             style="fill:#231f20;fill-opacity:1;fill-rule:nonzero;stroke:none"
             id="path96" /></g><g
           id="g98"
           transform="translate(64.3301,164.8291)"><path
             d="M 0,0 C -1.041,0.292 -1.76,0.684 -1.196,1.825 -0.762,2.703 -0.388,3.633 0.187,4.41 1.479,6.157 1.7,7.278 -0.581,8.67 -3.056,10.181 -3.78,8.802 -4.732,7.134 -5.157,6.391 -5.592,5.652 -6.059,4.935 -6.499,4.259 -7.015,3.917 -7.825,4.51 c -0.684,0.5 -1.02,0.974 -0.513,1.809 1.266,2.085 2.524,4.176 3.727,6.298 0.827,1.459 1.771,0.844 2.75,0.267 C 1.923,10.654 5.683,8.38 9.502,6.213 10.954,5.39 11.458,4.571 10.456,3.019 9.265,1.177 8.269,-0.79 7.144,-2.677 6.764,-3.313 6.247,-3.909 5.366,-3.457 4.418,-2.97 4.257,-2.221 4.786,-1.325 5.284,-0.482 5.795,0.354 6.325,1.176 7.18,2.5 7.773,3.659 5.935,4.822 4.058,6.009 3.734,4.467 2.874,3.51 1.854,2.375 1.696,0.491 0,0"
             style="fill:#231f20;fill-opacity:1;fill-rule:nonzero;stroke:none"
             id="path100" /></g><g
           id="g102"
           transform="translate(92.0634,50.5932)"><path
             d="m 0,0 c -1.756,-0.268 -2.176,-1.659 -2.911,-2.736 -0.846,-1.238 0.105,-1.763 0.91,-2.32 0.905,-0.625 1.862,-1.174 2.758,-1.81 0.725,-0.515 1.356,-1.093 0.674,-2.114 -0.666,-0.998 -1.373,-0.791 -2.141,-0.175 -0.096,0.077 -0.189,0.16 -0.294,0.221 -7.295,4.169 -7.297,4.17 -2.502,11.048 0.49,0.702 1.01,1.384 1.508,2.082 1.346,1.885 3.207,5.557 3.937,5.343 C 4.602,8.762 6.883,6.684 9.315,5.107 10.233,4.511 10.276,3.823 9.654,2.975 9.02,2.11 8.458,2.558 7.82,2.97 6.796,3.631 5.683,4.165 4.704,4.883 3.614,5.682 2.847,5.698 1.949,4.545 0.874,3.164 1.466,2.347 2.614,1.567 3.524,0.949 4.457,0.363 5.352,-0.276 6.122,-0.826 6.617,-1.485 5.822,-2.396 5.219,-3.088 4.612,-2.976 3.901,-2.489 2.598,-1.6 1.243,-0.787 0,0"
             style="fill:#231f20;fill-opacity:1;fill-rule:nonzero;stroke:none"
             id="path104" /></g><g
           id="g106"
           transform="translate(217.6816,164.742)"><path
             d="M 0,0 C -0.866,1.626 -1.565,3.058 -2.379,4.421 -2.928,5.342 -2.893,5.98 -1.912,6.523 -0.975,7.041 -0.57,6.372 -0.179,5.767 0.352,4.945 0.874,4.108 1.292,3.226 2.302,1.091 3.664,1.271 5.46,2.29 7.398,3.39 7.248,4.605 6.103,6.114 5.809,6.502 5.447,6.899 5.332,7.347 5.068,8.374 3.424,9.512 5.216,10.459 6.686,11.236 7.019,9.681 7.572,8.847 11.704,2.62 11.689,2.62 5.339,-1.109 2.813,-2.592 0.264,-4.041 -2.193,-5.633 c -1.341,-0.87 -2.092,-0.728 -2.8,0.736 -0.959,1.98 -2.087,3.877 -3.145,5.81 -0.411,0.75 -1.016,1.514 0.188,2.122 1.085,0.548 1.569,-0.221 2.03,-0.953 0.716,-1.139 1.384,-2.307 2.083,-3.456 0.634,-1.04 1.369,-0.652 2.185,-0.207 C -0.892,-1.167 -0.226,-0.747 0,0"
             style="fill:#231f20;fill-opacity:1;fill-rule:nonzero;stroke:none"
             id="path108" /></g><g
           id="g110"
           transform="translate(230.2556,93.2101)"><path
             d="M 0,0 C 1.439,0.312 1.08,2.314 1.879,3.506 2.475,4.396 2.038,6.442 3.904,5.917 6.026,5.321 4.773,3.639 4.376,2.58 1.445,-5.242 3.587,-4.41 -4.696,-1.982 c -1.166,0.341 -2.275,0.873 -3.425,1.275 -2.013,0.705 -5.119,0.54 -5.689,2.525 -0.802,2.792 1.41,5.523 2.159,8.329 0.199,0.749 0.723,0.893 1.406,0.623 0.661,-0.26 0.966,-0.754 0.807,-1.434 C -9.714,8.154 -9.92,6.926 -10.4,5.824 -11.06,4.308 -10.973,3.385 -9.231,2.721 -7.204,1.948 -6.948,3.338 -6.5,4.61 c 0.364,1.033 0.65,2.094 1.05,3.112 0.25,0.636 0.461,1.519 1.506,1.026 C -3.216,8.404 -2.782,7.861 -3.018,6.995 -3.274,6.055 -3.545,5.12 -3.807,4.181 -4.561,1.469 -3.371,-0.085 0,0"
             style="fill:#231f20;fill-opacity:1;fill-rule:nonzero;stroke:none"
             id="path112" /></g><g
           id="g114"
           transform="translate(47.2356,102.3965)"><path
             d="m 0,0 c 5.236,-0.181 9.519,-1.818 13.925,-2.729 2.96,-0.612 2.946,0.361 2.104,2.499 -0.134,0.341 -0.345,0.713 -0.309,1.047 0.119,1.089 -1.744,2.434 0.039,3.189 1.985,0.841 2.105,-1.172 2.471,-2.321 0.879,-2.757 1.581,-5.57 2.433,-8.644 -4.901,0.031 -9.16,1.731 -13.553,2.57 -2.571,0.492 -2.902,-0.103 -2.199,-2.263 0.341,-1.048 0.766,-2.079 0.998,-3.15 0.168,-0.777 0.492,-1.759 -0.761,-2.092 -1.172,-0.312 -1.534,0.531 -1.799,1.346 C 2.253,-7.19 1.206,-3.816 0,0"
             style="fill:#231f20;fill-opacity:1;fill-rule:nonzero;stroke:none"
             id="path116" /></g><g
           id="g118"
           transform="translate(217.7788,178.817)"><path
             d="M 0,0 C 0.426,2.056 -0.251,3.355 -1.868,4.179 -2.969,4.74 -4.029,4.61 -4.925,3.787 -6.255,2.566 -5.8,1.159 -5.293,-0.277 c 0.363,-1.03 0.728,-2.097 0.833,-3.173 0.313,-3.185 -1.585,-5.317 -4.598,-5.328 -2.864,-0.011 -5.855,3.016 -5.544,5.707 0.091,0.789 0.199,1.8 1.41,1.782 1.116,-0.018 1.341,-0.716 1.408,-1.707 0.123,-1.793 1.023,-3.325 2.959,-2.82 2.187,0.569 1.359,2.452 0.996,3.978 -0.17,0.71 -0.227,1.45 -0.427,2.151 -0.756,2.639 -0.171,4.839 2.124,6.434 C -4.174,8.108 -2.148,7.825 -0.3,6.573 1.976,5.033 3.312,2.868 2.86,0.033 2.688,-1.039 2.797,-2.896 1.266,-2.811 -0.511,-2.712 -0.526,-1.177 0,0"
             style="fill:#231f20;fill-opacity:1;fill-rule:nonzero;stroke:none"
             id="path120" /></g><g
           id="g122"
           transform="translate(214.3863,64.679)"><path
             d="m 0,0 c -3.595,0.045 -7.301,2.672 -8.455,5.995 -1.249,3.593 0.07,8.581 2.733,10.779 1.055,0.871 2.017,0.907 2.901,0.002 1.144,-1.17 -0.353,-1.283 -0.841,-1.779 C -5.88,12.746 -7.087,10.15 -5.716,7.067 -4.523,4.389 -2.254,2.901 0.696,2.955 4.077,3.017 5.997,5.085 6.933,8.192 7.147,8.901 6.856,10.121 8.349,9.408 9.469,8.872 9.537,8.082 9.28,7.004 8.353,3.114 4.199,-0.052 0,0"
             style="fill:#231f20;fill-opacity:1;fill-rule:nonzero;stroke:none"
             id="path124" /></g><g
           id="g126"
           transform="translate(68.9272,189.5283)"><path
             d="m 0,0 c 0.617,-0.39 1.151,-0.655 1.602,-1.024 3.498,-2.855 6.974,-5.737 10.47,-8.596 1.137,-0.931 1.442,-1.808 0.292,-3.035 -1.333,-1.423 -2.518,-2.99 -3.728,-4.525 -0.737,-0.935 -1.381,-0.619 -2.144,-0.036 -0.932,0.712 -0.293,1.289 0.116,1.831 0.66,0.877 1.388,1.705 2.114,2.53 0.886,1.004 0.487,1.613 -0.44,2.377 -0.953,0.785 -1.506,0.801 -2.463,-0.044 -1.234,-1.09 -2.064,-4.225 -3.882,-2.766 -2.237,1.794 0.924,3.152 1.798,4.617 0.723,1.215 0.158,1.795 -0.594,2.464 -1.28,1.135 -2.584,2.243 -3.871,3.37 -0.457,0.4 -1.026,0.847 -0.634,1.507 C -1.073,-0.842 -0.533,-0.503 0,0"
             style="fill:#231f20;fill-opacity:1;fill-rule:nonzero;stroke:none"
             id="path128" /></g><g
           id="g130"
           transform="translate(156.9986,44.1316)"><path
             d="m 0,0 c -1.076,-0.281 -1.829,-0.334 -2.146,0.851 -0.343,1.283 0.614,1.486 1.372,1.69 C 1.57,3.175 3.938,3.731 6.311,4.249 7.072,4.415 8.026,4.88 8.43,3.633 8.78,2.551 8.246,2.015 7.268,1.82 5.241,1.415 5.304,0.115 5.708,-1.478 c 0.806,-3.184 1.494,-6.396 2.289,-9.583 0.272,-1.089 0.824,-2.132 -0.892,-2.518 -1.589,-0.356 -1.88,0.755 -2.153,1.826 C 4.14,-8.57 3.295,-5.391 2.632,-2.176 2.286,-0.496 1.881,0.716 0,0"
             style="fill:#231f20;fill-opacity:1;fill-rule:nonzero;stroke:none"
             id="path132" /></g><g
           id="g134"
           transform="translate(205.5096,51.701)"><path
             d="m 0,0 c 0.032,-0.689 -0.403,-1.103 -0.87,-1.504 -0.707,-0.606 -1.307,-0.438 -1.858,0.23 -3.181,3.842 -6.363,7.682 -9.547,11.521 -0.589,0.71 -0.486,1.303 0.266,1.811 0.565,0.383 1.113,1.161 1.827,0.31 C -6.82,8.37 -3.486,4.348 -0.146,0.333 -0.072,0.243 -0.047,0.111 0,0"
             style="fill:#231f20;fill-opacity:1;fill-rule:nonzero;stroke:none"
             id="path136" /></g><g
           id="g138"
           transform="translate(67.456,92.5964)"><path
             d="m 0,0 c 1.437,0.277 1.876,-0.176 2.168,-0.964 0.309,-0.837 0.11,-1.45 -0.684,-1.787 -4.587,-1.949 -9.183,-3.878 -13.782,-5.799 -0.737,-0.308 -1.44,-0.335 -1.79,0.593 -0.259,0.685 -0.665,1.568 0.189,1.948 C -9.123,-3.88 -4.304,-1.85 0,0"
             style="fill:#231f20;fill-opacity:1;fill-rule:nonzero;stroke:none"
             id="path140" /></g><g
           id="g142"
           transform="translate(212.471,190.3977)"><path
             d="m 0,0 c 0.023,-1.048 -0.619,-1.496 -1.119,-2.001 -3.002,-3.031 -6.01,-6.058 -9.049,-9.052 -0.735,-0.724 -1.495,-1.886 -2.714,-0.695 -1.135,1.109 -0.308,1.94 0.506,2.749 3.11,3.092 6.205,6.198 9.321,9.282 0.502,0.497 1.035,1.183 1.853,0.782 C -0.7,0.819 -0.33,0.303 0,0"
             style="fill:#231f20;fill-opacity:1;fill-rule:nonzero;stroke:none"
             id="path144" /></g><g
           id="g146"
           transform="translate(147.112,99.8244)"><path
             d="M 0,0 C 1.713,-0.307 2.858,-1.153 2.868,-3.089 2.878,-5.033 1.82,-6.068 -0.023,-6.056 -1.807,-6.044 -3.061,-5.144 -2.94,-3.144 -2.832,-1.364 -1.894,-0.238 0,0"
             style="fill:#231f20;fill-opacity:1;fill-rule:nonzero;stroke:none"
             id="path148" /></g><g
           id="g150"
           transform="translate(105.6879,97.4483)"><path
             d="m 0,0 c -0.387,-1.907 -1.47,-2.848 -3.304,-2.816 -2.031,0.035 -2.719,1.311 -2.637,3.125 0.088,1.934 1.352,2.881 3.098,2.816 C -0.973,3.055 -0.272,1.598 0,0"
             style="fill:#231f20;fill-opacity:1;fill-rule:nonzero;stroke:none"
             id="path152" /></g><g
           id="g154"
           transform="translate(197.1788,97.7003)"><path
             d="M 0,0 C -0.026,-2.417 -1.139,-3.377 -2.934,-3.519 -4.678,-3.658 -5.753,-2.638 -5.893,-0.986 -6.05,0.845 -4.937,2.08 -3.185,2.293 -1.311,2.522 -0.398,1.229 0,0"
             style="fill:#231f20;fill-opacity:1;fill-rule:nonzero;stroke:none"
             id="path156" /></g><g
           id="g158"
           transform="translate(236.8692,254.5654)"><path
             d="m 0,0 c -2.786,2.14 -5.415,1.309 -9.348,-2.966 -17.458,-18.982 -34.951,-37.94 -54.784,-54.523 -8.93,-7.465 -18.075,-14.72 -28.883,-19.403 -3.921,-1.699 -7.995,-3.332 -12.393,-2.712 -8.329,1.176 -13.432,6.85 -14.74,15.976 -1.012,7.06 -0.908,14.193 -1.461,21.281 -0.572,7.315 -0.311,14.736 -2.446,21.869 -1.486,4.967 -5.643,7.703 -10.318,6.815 -2.408,-0.457 -3.964,-1.289 -3.054,-4.496 2.685,-9.465 2.551,-19.085 1.407,-28.829 -1.471,-12.548 -4.091,-24.897 -5.834,-37.396 -2.56,-18.363 13.802,-32.794 29.245,-32.58 3.25,-0.184 6.629,0.424 9.863,1.643 12.62,4.755 23.094,12.852 32.793,21.902 26.716,24.924 48.012,54.352 69.054,83.964 C 2.338,-4.9 2.509,-1.926 0,0 m -3.323,-8.545 c -10.163,-14.97 -21.113,-29.362 -32.386,-43.508 -9.234,-11.588 -18.731,-22.952 -29.501,-33.175 -9.584,-9.097 -19.141,-18.259 -31.044,-24.382 -14.139,-7.273 -24.225,-7.181 -36.189,4.038 -5.653,5.301 -7.792,12.347 -7.009,20.404 0.944,9.699 3,19.186 4.451,28.782 1.053,6.966 1.911,14.006 2.144,21.036 0.154,4.638 -0.824,9.338 -1.568,13.968 -0.265,1.648 -1.337,3.87 0.229,4.535 2.282,0.971 4.841,0.025 6.388,-2.197 1.44,-2.067 2.189,-4.551 2.419,-6.978 0.675,-7.121 1.795,-14.219 1.562,-20.304 -0.085,-8.371 0.188,-15.628 2.21,-22.65 3.172,-11.02 13.309,-15.459 23.828,-12.53 11.673,3.252 21.007,10.599 30.268,17.773 11.762,9.109 22.823,19.15 33.002,30.009 8.91,9.504 18.438,18.441 26.668,28.592 1.304,1.609 2.89,4.676 5.481,2.824 2.78,-1.986 0.291,-4.404 -0.953,-6.237"
             style="fill:#231f20;fill-opacity:1;fill-rule:nonzero;stroke:none"
             id="path160" /></g><g
           id="g162"
           transform="translate(212.2586,138.9847)"><path
             d="m 0,0 c -2.548,13.584 -8.808,25.355 -18.248,35.48 -1.819,1.951 -2.782,0.862 -4.146,-0.325 -1.483,-1.292 -1.658,-2.162 -0.132,-3.779 8.663,-9.183 14.705,-19.74 17.05,-32.352 4.788,-25.748 -2.31,-47.679 -22.291,-64.376 -23.556,-19.683 -55.988,-20.371 -81.426,-3.044 -29.137,19.845 -37.115,60.75 -17.328,89.93 2.529,3.73 2.395,7.271 2.014,11.536 -24.418,-27.288 -25.3,-69.621 1.852,-97.506 17.607,-18.082 39.552,-24.818 64.504,-20.86 13.208,2.096 24.92,7.723 34.946,16.684 7.501,5.995 12.924,13.581 16.993,22.203 C 1.354,-31.675 3.02,-16.1 0,0"
             style="fill:#231f20;fill-opacity:1;fill-rule:nonzero;stroke:none"
             id="path164" /></g><g
           id="g166"
           transform="translate(127.6871,130.3327)"><path
             d="m 0,0 c -10.731,0.062 -19.09,-7.87 -19.113,-18.137 -0.023,-10.465 8.124,-18.749 18.532,-18.843 10.579,-0.096 19.203,8.005 19.247,18.076 C 18.714,-8.033 10.844,-0.062 0,0 m -0.344,-31.316 c -6.777,-0.022 -12.53,5.747 -12.632,12.665 -0.11,7.447 5.747,13.382 13.177,13.352 6.795,-0.027 12.368,-6.03 12.392,-13.351 0.024,-6.97 -5.77,-12.643 -12.937,-12.666"
             style="fill:#231f20;fill-opacity:1;fill-rule:nonzero;stroke:none"
             id="path168" /></g><g
           id="g170"
           transform="translate(144.9022,237.7994)"><path
             d="m 0,0 c -13.797,-7.726 -21.377,-19.901 -22.847,-35.59 -0.833,-8.889 3.787,-15.527 11.086,-17.245 4.176,-0.983 8.318,-0.623 12.271,0.82 14.223,5.191 25.113,20.988 25.158,36.258 C 25.712,-0.711 13.002,7.281 0,0 m 22.752,-16.445 c 0.052,-15.397 -10.039,-29.5 -25.418,-33.988 -8.563,-2.498 -17.023,1.485 -17.605,12.532 -0.735,13.935 10.848,31.684 24.253,36.803 9.554,3.648 19.276,-4.02 18.775,-12.399 -0.059,-0.979 -0.008,-1.965 -0.005,-2.948"
             style="fill:#231f20;fill-opacity:1;fill-rule:nonzero;stroke:none"
             id="path172" /></g><g
           id="g174"
           transform="translate(67.2324,86.1103)"><path
             d="m 0,0 c -5.345,0.023 -9.523,-4.199 -9.427,-9.527 0.095,-5.341 4.451,-9.605 9.916,-9.707 5.191,-0.098 9.293,3.947 9.31,9.18 C 9.818,-4.297 5.654,-0.024 0,0 m 0.108,-16.283 c -3.455,-0.015 -6.531,3.066 -6.536,6.543 -0.004,3.638 3.069,6.678 6.817,6.744 3.519,0.061 6.42,-2.874 6.471,-6.545 0.05,-3.661 -3.02,-6.727 -6.752,-6.742"
             style="fill:#231f20;fill-opacity:1;fill-rule:nonzero;stroke:none"
             id="path176" /></g><g
           id="g178"
           transform="translate(177.1687,52.5437)"><path
             d="m 0,0 c -5.381,0.124 -10.299,-4.376 -10.318,-9.439 -0.02,-5.318 4.17,-9.481 9.609,-9.549 5.414,-0.067 9.768,4.294 9.751,9.766 C 9.025,-4.092 5.129,-0.118 0,0 m -0.418,-16.066 c -3.586,-0.06 -6.727,3.13 -6.764,6.871 -0.033,3.259 3.316,6.377 6.848,6.375 3.367,-0.001 6.304,-3.221 6.258,-6.86 -0.04,-3.304 -3.047,-6.331 -6.342,-6.386"
             style="fill:#231f20;fill-opacity:1;fill-rule:nonzero;stroke:none"
             id="path180" /></g><g
           id="g182"
           transform="translate(118.4898,48.575)"><path
             d="m 0,0 c -5.534,0.079 -9.801,-3.879 -9.896,-9.18 -0.096,-5.43 4.083,-9.416 9.968,-9.506 5.191,-0.079 9.271,3.711 9.418,8.746 C 9.655,-4.278 5.648,-0.081 0,0 m -0.283,-15.791 c -3.766,0.062 -6.634,2.9 -6.52,6.453 0.109,3.387 3.464,6.772 6.623,6.683 3.886,-0.109 6.637,-3.033 6.502,-6.907 -0.134,-3.814 -2.76,-6.291 -6.605,-6.229"
             style="fill:#231f20;fill-opacity:1;fill-rule:nonzero;stroke:none"
             id="path184" /></g><g
           id="g186"
           transform="translate(229.9142,141.6714)"><path
             d="m 0,0 c -5.579,0.006 -9.774,-4.4 -9.678,-10.169 0.081,-4.886 4.227,-8.823 9.378,-8.906 5.094,-0.082 9.597,4.478 9.521,9.639 C 9.142,-4.14 5.102,-0.006 0,0 m -0.163,-15.857 c -3.811,-0.025 -6.706,2.623 -6.783,6.209 -0.078,3.55 3.12,6.493 7.015,6.458 3.802,-0.035 6.265,-2.681 6.212,-6.672 -0.048,-3.553 -2.645,-5.969 -6.444,-5.995"
             style="fill:#231f20;fill-opacity:1;fill-rule:nonzero;stroke:none"
             id="path188" /></g><g
           id="g190"
           transform="translate(67.6985,159.906)"><path
             d="m 0,0 c -3.467,1.477 -6.963,2.955 -10.229,4.816 -3.212,1.829 -4.79,0.842 -5.686,-2.374 -0.26,-0.937 -0.661,-1.835 -0.911,-2.775 -1.552,-5.835 2.251,-10.868 8.273,-10.977 4.688,-0.085 7.147,2.059 9.68,7.959 C 1.867,-1.63 1.835,-0.781 0,0 m -2.24,-3.976 c -0.694,-2.434 -2.587,-4.501 -5.553,-4.389 -3.47,-0.079 -6.349,2.286 -6.579,5.285 -0.305,3.959 1.545,5.319 5.108,3.755 1.116,-0.491 2.341,-0.828 3.319,-1.516 1.354,-0.952 4.405,-0.683 3.705,-3.135"
             style="fill:#231f20;fill-opacity:1;fill-rule:nonzero;stroke:none"
             id="path192" /></g><g
           id="g194"
           transform="translate(139.5022,37.3494)"><path
             d="M 0,0 C 2.278,1.54 2.07,5.254 0.058,6.833 -2.143,8.559 -4.863,8.836 -7.594,8.845 -8.834,8.849 -8.903,7.9 -8.983,7.083 -9.444,2.331 -9.865,-2.424 -10.277,-7.18 c -0.079,-0.915 0.053,-1.702 1.294,-1.726 1.09,-0.02 1.497,0.5 1.653,1.507 0.255,1.642 -0.269,3.45 0.965,4.903 3.091,-1.604 2.467,-7.236 7.797,-6.981 -0.795,1.496 -1.324,2.729 -2.06,3.822 C -2.042,-3.554 -2.892,-1.956 0,0 m -4.323,0.792 c -1.936,-0.111 -2.203,1.122 -2.091,2.325 0.045,1.621 0.143,2.798 1.953,2.755 1.807,-0.043 2.873,-1.04 2.877,-2.661 0.004,-1.51 -1.2,-2.331 -2.739,-2.419"
             style="fill:#231f20;fill-opacity:1;fill-rule:nonzero;stroke:none"
             id="path196" /></g><g
           id="g198"
           transform="translate(62.5658,132.6311)"><path
             d="m 0,0 c -0.325,0.424 -0.998,0.769 -1.539,0.81 -4.756,0.368 -9.518,0.655 -14.278,0.976 -0.975,0.065 -1.697,-0.18 -1.803,-1.298 -0.145,-1.543 0.964,-1.404 1.943,-1.451 1.53,-0.073 3.153,0.219 4.405,-1.031 -1.539,-3.082 -6.92,-2.398 -6.965,-7.732 1.647,0.907 2.727,1.458 3.765,2.081 2.15,1.291 3.933,2.355 6.087,-0.502 1.655,-2.195 4.344,-1.951 6.568,-0.135 C -0.747,-7.408 0.713,-0.931 0,0 m -2.733,-3.923 c -0.123,-1.581 -1.003,-2.65 -2.499,-2.629 -1.747,0.025 -2.429,1.413 -2.546,3.024 -0.132,1.807 1.02,1.96 3.058,1.7 0.687,-0.072 2.144,-0.072 1.987,-2.095"
             style="fill:#231f20;fill-opacity:1;fill-rule:nonzero;stroke:none"
             id="path200" /></g><g
           id="g202"
           transform="translate(231.1804,86.4661)"><path
             d="m 0,0 c -2.185,0.545 -3.967,-0.088 -5.754,-0.38 -1.724,-0.282 -2.754,0.061 -3.162,1.978 -0.691,3.253 -2.983,4.31 -6.062,3.773 -1.728,-0.301 -5.384,-5.509 -5.233,-7.135 0.07,-0.769 0.658,-1.018 1.162,-1.278 4.231,-2.185 8.488,-4.318 12.721,-6.498 0.721,-0.371 1.303,-0.671 1.75,0.317 0.377,0.835 0.636,1.53 -0.445,2.131 -1.455,0.81 -3.131,1.349 -4.092,2.808 C -6.53,-1.607 -1.702,-4.639 0,0 m -11.367,-0.103 c -0.175,-0.995 -0.382,-2.789 -2.068,-2.328 -1.24,0.339 -3.196,0.631 -3.042,2.456 0.106,1.253 1.168,2.358 2.794,2.464 1.402,-0.278 2.592,-1.017 2.316,-2.592"
             style="fill:#231f20;fill-opacity:1;fill-rule:nonzero;stroke:none"
             id="path204" /></g><g
           id="g206"
           transform="translate(201.6741,47.7445)"><path
             d="M 0,0 C -1.787,0.715 -2.697,1.052 -3.586,1.441 -5.9,2.453 -8.558,2.725 -7.07,6.826 c 1.105,3.043 -2.912,5.827 -6.237,4.951 -1.723,-0.453 -2.904,-1.813 -4.464,-2.459 -1.893,-0.784 -1.521,-1.828 -0.675,-3.1 2.427,-3.65 4.835,-7.314 7.279,-10.953 0.44,-0.655 0.788,-1.657 1.95,-0.952 1.071,0.651 1.122,1.351 0.432,2.405 -0.871,1.331 -1.529,2.802 -2.478,4.586 C -7.375,0.95 -4.513,-2.727 0,0 m -12.469,4.026 c -1.674,-0.019 -2.083,1.726 -2.735,3.005 0.387,1.612 1.686,2.087 2.994,2.125 1.438,0.042 2.219,-1.157 2.207,-2.411 -0.014,-1.446 -1.086,-2.703 -2.466,-2.719"
             style="fill:#231f20;fill-opacity:1;fill-rule:nonzero;stroke:none"
             id="path208" /></g><g
           id="g210"
           transform="translate(158.3045,32.0294)"><path
             d="m 0,0 c -2.826,4.723 -5.757,9.382 -9.197,14.938 -2.153,-6.126 -3.998,-11.279 -5.749,-16.464 -0.275,-0.813 -1.767,-1.973 0.054,-2.6 1.298,-0.447 2.504,0.211 2.734,1.7 0.355,2.291 1.832,2.817 3.856,3.035 2.375,0.255 4.622,0.715 5.902,-2.114 0.522,-1.154 1.739,-1.532 2.806,-0.838 C 1.714,-1.49 0.381,-0.637 0,0 M -8.01,3.13 C -8.838,3.059 -9.998,3.043 -9.733,4.244 -9.502,5.299 -9.645,7.108 -8.247,7.157 -6.982,7.201 -6.956,5.393 -6.301,4.441 -6.266,3.207 -7.216,3.197 -8.01,3.13"
             style="fill:#231f20;fill-opacity:1;fill-rule:nonzero;stroke:none"
             id="path212" /></g><g
           id="g214"
           transform="translate(44.6415,121.2766)"><path
             d="m 0,0 c -0.512,-2.551 0.609,-3.673 2.507,-4.075 1.737,-0.367 2.38,-1.296 2.468,-3.046 0.124,-2.482 1.19,-5.109 -2.234,-6.402 -1.101,-0.416 -0.866,-1.686 -0.608,-2.628 0.243,-0.889 0.903,-0.561 1.425,-0.227 4.996,3.205 9.986,6.419 15.734,10.118 C 12.326,-4 6.241,-2.025 0,0 M 9.08,-9.143 C 7.529,-9.397 7.913,-7.935 7.7,-7.14 7.46,-6.243 7.947,-5.78 9,-5.974 9.691,-6.564 11.445,-5.978 11.316,-7.551 11.234,-8.557 9.99,-8.994 9.08,-9.143"
             style="fill:#231f20;fill-opacity:1;fill-rule:nonzero;stroke:none"
             id="path216" /></g></g></g></g></svg>
