<svg width="71.59mm" height="55.06mm" style="clip-rule:evenodd;fill-rule:evenodd;image-rendering:optimizeQuality;shape-rendering:geometricPrecision;text-rendering:geometricPrecision" version="1.1" viewBox="0 0 7159 5506" xml:space="preserve" xmlns="http://www.w3.org/2000/svg">
 <defs>
  <style type="text/css">
   <![CDATA[
    .fil0 {fill:#FEFEFE}
    .fil1 {fill:#FEFEFE;fill-rule:nonzero}
   ]]>
  </style>
 </defs>
 <g transform="translate(-6962,-12393)">
  
  <path class="fil0" d="m10837 17820 16-270h226l15 270zm29-484 13-209h175l12 209zm26-424 12-189h127l11 189zm23-370 14-243h78l14 243zm22-360 11-182h41l11 182z"/>
  <polygon class="fil1" points="11753 15405 12449 15405 12954 16169 13510 15405 14121 15405 13190 16650 13190 17820 12616 17820 12616 16674"/>
  <polygon class="fil1" points="10995 15329 12200 17820 11596 17820 10976 15329 10307 17820 9726 17820 10958 15329"/>
  <polygon class="fil1" points="7546 15405 8016 16707 8521 15326 8566 15326 9074 16707 9539 15405 10077 15405 9074 17899 9038 17899 8521 16517 8016 17899 7973 17899 6962 15405"/>
  <path class="fil1" d="m12247 12393v1328c0 213 39 373 118 479 77 106 196 159 356 159 152 0 270-50 350-149 81-98 121-242 121-431v-1386h515v1386c0 349-89 621-268 816s-427 293-745 293c-321 0-571-97-750-290-178-194-267-466-267-815v-1390z"/>
  <path class="fil1" d="m9214 14809v-2416h641c451 0 805 108 1060 323 255 216 383 511 383 885 0 224-50 424-152 597-100 174-249 317-444 430-112 64-232 110-363 138-130 29-292 43-484 43z"/>
  <polygon class="fil1" points="8760 12393 8760 12892 7832 12892 7832 13328 8627 13328 8627 13823 7832 13823 7832 14301 8774 14301 8774 14809 7273 14809 7273 12393"/>
 </g>
</svg>
