<?xml version="1.0" encoding="UTF-8" standalone="no"?>
<svg
   xmlns:dc="http://purl.org/dc/elements/1.1/"
   xmlns:cc="http://creativecommons.org/ns#"
   xmlns:rdf="http://www.w3.org/1999/02/22-rdf-syntax-ns#"
   xmlns:svg="http://www.w3.org/2000/svg"
   xmlns="http://www.w3.org/2000/svg"
   xmlns:sodipodi="http://sodipodi.sourceforge.net/DTD/sodipodi-0.dtd"
   xmlns:inkscape="http://www.inkscape.org/namespaces/inkscape"
   xml:space="preserve"
   width="71.589996mm"
   height="55.060001mm"
   version="1.1"
   style="clip-rule:evenodd;fill-rule:evenodd;image-rendering:optimizeQuality;shape-rendering:geometricPrecision;text-rendering:geometricPrecision"
   viewBox="0 0 7158.9996 5506.0001"
   id="svg56"
   sodipodi:docname="ew.svg"
   inkscape:version="1.0.1 (3bc2e813f5, 2020-09-07)"><metadata
   id="metadata60"><rdf:RDF><cc:Work
       rdf:about=""><dc:format>image/svg+xml</dc:format><dc:type
         rdf:resource="http://purl.org/dc/dcmitype/StillImage" /><dc:title></dc:title></cc:Work></rdf:RDF></metadata><sodipodi:namedview
   pagecolor="#ffffff"
   bordercolor="#666666"
   borderopacity="1"
   objecttolerance="10"
   gridtolerance="10"
   guidetolerance="10"
   inkscape:pageopacity="0"
   inkscape:pageshadow="2"
   inkscape:window-width="1920"
   inkscape:window-height="1017"
   id="namedview58"
   showgrid="false"
   inkscape:zoom="0.75722503"
   inkscape:cx="133.71969"
   inkscape:cy="92.862993"
   inkscape:window-x="-8"
   inkscape:window-y="-8"
   inkscape:window-maximized="1"
   inkscape:current-layer="svg56" />
 <defs
   id="defs38">
  <style
   type="text/css"
   id="style36">
   <![CDATA[
    .fil0 {fill:#FEFEFE}
    .fil1 {fill:#FEFEFE;fill-rule:nonzero}
   ]]>
  </style>
 </defs>
 <g
   id="Livello_x0020_1"
   transform="translate(-6962,-12393)">
  <metadata
   id="CorelCorpID_0Corel-Layer" />
  <path
   class="fil0"
   d="m 10837,17820 16,-270 h 226 l 15,270 z m 29,-484 13,-209 h 175 l 12,209 z m 26,-424 12,-189 h 127 l 11,189 z m 23,-370 14,-243 h 78 l 14,243 z m 22,-360 11,-182 h 41 l 11,182 z"
   id="path41" />
  <polygon
   class="fil1"
   points="11753,15405 12449,15405 12954,16169 13510,15405 14121,15405 13190,16650 13190,17820 12616,17820 12616,16674 "
   id="polygon43" />
  <polygon
   class="fil1"
   points="10995,15329 12200,17820 11596,17820 10976,15329 10307,17820 9726,17820 10958,15329 "
   id="polygon45" />
  <polygon
   class="fil1"
   points="7546,15405 8016,16707 8521,15326 8566,15326 9074,16707 9539,15405 10077,15405 9074,17899 9038,17899 8521,16517 8016,17899 7973,17899 6962,15405 "
   id="polygon47" />
  <path
   class="fil1"
   d="m 12247,12393 v 1328 c 0,213 39,373 118,479 77,106 196,159 356,159 152,0 270,-50 350,-149 81,-98 121,-242 121,-431 v -1386 h 515 v 1386 c 0,349 -89,621 -268,816 -179,195 -427,293 -745,293 -321,0 -571,-97 -750,-290 -178,-194 -267,-466 -267,-815 v -1390 z"
   id="path49" />
  <path
   class="fil1"
   d="m 9214,14809 v -2416 h 641 c 451,0 805,108 1060,323 255,216 383,511 383,885 0,224 -50,424 -152,597 -100,174 -249,317 -444,430 -112,64 -232,110 -363,138 -130,29 -292,43 -484,43 z"
   id="path51" />
  <polygon
   class="fil1"
   points="8760,12393 8760,12892 7832,12892 7832,13328 8627,13328 8627,13823 7832,13823 7832,14301 8774,14301 8774,14809 7273,14809 7273,12393 "
   id="polygon53" />
 </g>
</svg>
