<svg version="1.1" xmlns="http://www.w3.org/2000/svg">
<symbol id="icon-podcast"  viewBox="0 0 32 32" >
<title>Play Podcast</title>
 <path d="m11.214 6.1125e-7c-3.145-1e-3 -5.971 1.225-8.168 3.541-1.526 1.606-2.4438 3.4183-2.9238 5.7383-0.184 0.864-0.15098 3.1117 0.041016 4.0527 0.768 3.651 2.8798 6.3946 6.1758 8.0156l0.05274 0.04102c0.576 0.277 1.1203 0.51172 1.1953 0.51172 0.115 0 0.12722-0.13914 0.07422-0.61914-0.085-0.789-0.18091-0.94862-0.62891-1.1406-0.203-0.085-0.69461-0.36191-1.0996-0.62891-2.069-1.333-3.6479-3.5726-4.2559-6.0156-0.245-1.003-0.245-3.4462 0-4.4492 0.918-3.691 3.9275-6.6241 7.5645-7.3711 1.056-0.213 2.955-0.213 4 0 3.595 0.747 6.527 3.5417 7.498 7.1367 0.309 1.131 0.34145 3.5729 0.06445 4.6719l-0.01563 0.07031c-0.463 1.785-1.3971 3.3805-2.6621 4.6445-0.746 0.748-1.9627 1.6131-2.6777 1.9121-0.448 0.188-0.54462 0.35358-0.64062 1.1426-0.053 0.492-0.04083 0.61133 0.07617 0.61133 0.32 0 2.3042-1.0667 3.1152-1.6797l0.02734-0.01953c2.198-1.678 3.766-4.141 4.293-7.041 0.151-0.886 0.15024-3.0333-0.0098-3.8203-0.47-2.364-1.3875-4.1595-3.0195-5.8555-2.144-2.246-4.9592-3.4492-8.0742-3.4492zm0.18359 3.7461c-0.909-0.012-1.8749 0.08825-2.4219 0.28125-2.56 0.912-4.4042 2.8554-5.0762 5.3594-0.256 0.928-0.25672 2.696-0.011719 3.627 0.405 1.54 1.3871 3.1111 2.4961 3.9961l0.04492 0.01367c0.331 0.267 0.64359 0.48047 0.68359 0.48047 0.044 0 0.08008-0.36255 0.08008-0.81055v-0.81055l-0.55078-0.66211c-2.091-2.507-1.9414-6.0229 0.35156-8.2949 0.936-0.926 1.9896-1.4528 3.3496-1.6758 0.896-0.146 1.0786-0.14528 1.9316 0.011719 1.323 0.242 2.3455 0.76716 3.2305 1.6602 2.282 2.296 2.4328 5.7948 0.3418 8.2988l-0.55469 0.66211v0.80664c0 0.441 0.03345 0.80469 0.06445 0.80469 0.192 0 1.2786-0.9602 1.7266-1.5332 0.906-1.133 1.4181-2.3548 1.6211-3.8398 0.512-3.688-2.122-7.4054-5.834-8.2324-0.404-0.088-0.93156-0.13562-1.4766-0.14062zm-0.17773 3.9863c-0.412 0-0.82405 0.07837-1.123 0.23438-0.939 0.499-1.4824 1.3511-1.4824 2.3281 0.011 1.085 0.5217 1.9184 1.4707 2.3594h0.02149c2.016 0.942 4.246-0.90186 3.627-3.0059-0.203-0.686-0.73767-1.3407-1.3887-1.6777-0.298-0.157-0.712-0.23828-1.125-0.23828zm-0.01367 6.3047c-1.326 5e-3 -2.276 0.47197-2.625 1.293-0.264 0.619-0.16398 2.5763 0.29102 5.7363 0.392 2.718 0.59578 3.1824 1.5508 3.5254h0.0039c0.789 0.28 1.622 0.13523 2.209-0.38477 0.427-0.376 0.59725-0.93262 0.90625-3.1406 0.456-3.16 0.55502-5.1173 0.29102-5.7363-0.352-0.828-1.31-1.298-2.627-1.293z"/>
</symbol>
<symbol id="icon-facebook"  viewBox="0 0 36 32" >
<title>Facebook link</title>
<path  d="M31.997 15.999c0-8.836-7.163-15.999-15.999-15.999s-15.999 7.163-15.999 15.999c0 7.985 5.851 14.604 13.499 15.804v-11.18h-4.062v-4.625h4.062v-3.525c0-4.010 2.389-6.225 6.043-6.225 1.75 0 3.581 0.313 3.581 0.313v3.937h-2.017c-1.987 0-2.607 1.233-2.607 2.498v3.001h4.437l-0.709 4.625h-3.728v11.18c7.649-1.2 13.499-7.819 13.499-15.804z"></path>
</symbol>
<symbol id="icon-googlepodcast" viewBox="0 0 32 32">
<title>Google Podcast</title>
<path  d="M2 12.907c-1.107 0-2 0.893-2 2v2.173c0 1.105 0.895 2 2 2s2-0.895 2-2v0-2.173c0-1.107-0.893-2-2-2zM30 12.907c-1.107 0-2 0.893-2 2v2.173c0 1.105 0.895 2 2 2s2-0.895 2-2v0-2.173c0-1.107-0.893-2-2-2zM8.907 19.453c-1.107 0-2 0.893-2 2v2.173c0 1.105 0.895 2 2 2s2-0.895 2-2v0-2.16c0-1.107-0.893-2-2-2.013zM8.907 6.36c-1.107 0-2 0.893-2 2v7.147c0 1.105 0.895 2 2 2s2-0.895 2-2v0-7.16c0-1.107-0.893-2-2-1.987zM23.093 6.36c-1.107 0-2 0.893-2 2v2.187c0 1.105 0.895 2 2 2s2-0.895 2-2v0-2.187c0-1.107-0.893-2-2-2zM16 0c-1.107 0-2 0.893-2 2v2.173c0 1.105 0.895 2 2 2s2-0.895 2-2v0-2.173c0-1.107-0.893-2-2-2zM16 25.813c-1.107 0-2 0.893-2 2v2.187c0 0.002 0 0.004 0 0.007 0 1.105 0.895 2 2 2 1.102 0 1.996-0.892 2-1.993v-2.187c0-1.093-0.893-2-2-2.013zM23.093 14.533c-1.107 0-2 0.907-2 2v7.107c0 1.105 0.895 2 2 2s2-0.895 2-2v0-7.107c0-1.107-0.893-2-2-2zM16 8.173c-1.107 0-2 0.907-2 2v11.64c0 1.105 0.895 2 2 2s2-0.895 2-2v0-11.627c0-1.107-0.893-2-2-2.013z"></path>
</symbol>
<symbol id="icon-instagram"  viewBox="0 0 32 32" >
<title>Instagram Link</title>
<path  d="M16 0c-4.347 0-4.889 0.020-6.596 0.096-1.704 0.080-2.864 0.348-3.884 0.744-1.052 0.408-1.945 0.956-2.835 1.845s-1.439 1.781-1.845 2.835c-0.396 1.020-0.665 2.18-0.744 3.884-0.080 1.707-0.096 2.249-0.096 6.596s0.020 4.889 0.096 6.596c0.080 1.703 0.348 2.864 0.744 3.884 0.408 1.051 0.956 1.945 1.845 2.835 0.889 0.888 1.781 1.439 2.835 1.845 1.021 0.395 2.181 0.665 3.884 0.744 1.707 0.080 2.249 0.096 6.596 0.096s4.889-0.020 6.596-0.096c1.703-0.080 2.864-0.349 3.884-0.744 1.051-0.408 1.945-0.957 2.835-1.845 0.888-0.889 1.439-1.78 1.845-2.835 0.395-1.020 0.665-2.181 0.744-3.884 0.080-1.707 0.096-2.249 0.096-6.596s-0.020-4.889-0.096-6.596c-0.080-1.703-0.349-2.865-0.744-3.884-0.408-1.052-0.957-1.945-1.845-2.835-0.889-0.889-1.78-1.439-2.835-1.845-1.020-0.396-2.181-0.665-3.884-0.744-1.707-0.080-2.249-0.096-6.596-0.096zM16 2.88c4.271 0 4.78 0.021 6.467 0.095 1.56 0.073 2.407 0.332 2.969 0.553 0.749 0.289 1.28 0.636 1.843 1.195 0.559 0.56 0.905 1.092 1.195 1.841 0.219 0.563 0.48 1.409 0.551 2.969 0.076 1.688 0.093 2.195 0.093 6.467s-0.020 4.78-0.099 6.467c-0.081 1.56-0.341 2.407-0.561 2.969-0.299 0.749-0.639 1.28-1.199 1.843-0.559 0.559-1.099 0.905-1.84 1.195-0.56 0.219-1.42 0.48-2.98 0.551-1.699 0.076-2.199 0.093-6.479 0.093-4.281 0-4.781-0.020-6.479-0.099-1.561-0.081-2.421-0.341-2.981-0.561-0.759-0.299-1.28-0.639-1.839-1.199-0.561-0.559-0.92-1.099-1.2-1.84-0.22-0.56-0.479-1.42-0.56-2.98-0.060-1.68-0.081-2.199-0.081-6.459 0-4.261 0.021-4.781 0.081-6.481 0.081-1.56 0.34-2.419 0.56-2.979 0.28-0.76 0.639-1.28 1.2-1.841 0.559-0.559 1.080-0.919 1.839-1.197 0.56-0.221 1.401-0.481 2.961-0.561 1.7-0.060 2.2-0.080 6.479-0.080zM16 7.784c-4.54 0-8.216 3.68-8.216 8.216 0 4.54 3.68 8.216 8.216 8.216 4.54 0 8.216-3.68 8.216-8.216 0-4.54-3.68-8.216-8.216-8.216zM16 21.333c-2.947 0-5.333-2.387-5.333-5.333s2.387-5.333 5.333-5.333 5.333 2.387 5.333 5.333-2.387 5.333-5.333 5.333zM26.461 7.46c0 1.060-0.861 1.92-1.92 1.92-1.060 0-1.92-0.861-1.92-1.92s0.861-1.919 1.92-1.919c1.057-0.001 1.92 0.86 1.92 1.919z"></path>
</symbol>
<symbol id="icon-itunes" viewBox="0 0 16.473 20.512">
<title>itunes</title>
<title>Apple Podcast</title>
 <path d="m14.432 18.203c0.975-0.285 1.661-0.979 1.944-1.957l0.083-0.288 0.011-7.716c8e-3 -5.779 0-7.752-0.032-7.86-0.033-0.115-0.088-0.209-0.157-0.285-0.103-0.064-0.227-0.097-0.368-0.097-0.097 0-0.433 0.047-0.747 0.104-1.388 0.253-9.568 1.881-9.708 1.933-0.216 0.081-0.431 0.271-0.532 0.472l-0.087 0.171s-0.041 12.095-0.104 12.231c-0.095 0.207-0.307 0.404-0.501 0.467-0.092 0.029-0.457 0.112-0.812 0.183-1.641 0.327-2.251 0.561-2.767 1.068-0.293 0.288-0.509 0.68-0.604 1.092-0.089 0.393-0.06 0.983 0.068 1.341 0.133 0.375 0.349 0.695 0.631 0.947 0.256 0.197 0.559 0.344 0.899 0.432 0.751 0.192 2.157-0.021 2.877-0.437 0.301-0.175 0.688-0.539 0.889-0.839 0.08-0.119 0.2-0.357 0.267-0.532 0.235-0.608 0.241-11.443 0.272-11.579 0.051-0.232 0.209-0.401 0.427-0.459 0.196-0.052 8.073-1.609 8.296-1.64 0.195-0.027 0.379 0.036 0.48 0.16 0.06 0.032 0.111 0.075 0.145 0.128 0.064 0.095 0.068 0.284 0.077 3.713 0.011 3.948 0.016 3.856-0.199 4.105-0.156 0.181-0.351 0.252-1.152 0.415-1.219 0.249-1.635 0.367-2.101 0.595-0.583 0.284-0.905 0.596-1.156 1.115-0.177 0.367-0.243 0.641-0.243 1.005 1e-3 0.652 0.225 1.161 0.733 1.66 0.047 0.045 0.092 0.088 0.139 0.129 0.256 0.197 0.516 0.317 0.844 0.392 0.493 0.109 1.499 0.033 2.188-0.168z"/>
</symbol>
<symbol id="icon-linkedin"  viewBox="0 0 32 32" >
<title>Linkedin Link</title>
<path  d="M27.263 27.269h-4.739v-7.425c0-1.771-0.036-4.049-2.469-4.049-2.471 0-2.848 1.927-2.848 3.919v7.556h-4.739v-15.269h4.552v2.081h0.061c0.636-1.2 2.183-2.467 4.493-2.467 4.801 0 5.689 3.16 5.689 7.273zM7.116 9.911c-1.525 0-2.751-1.235-2.751-2.753 0-1.517 1.227-2.751 2.751-2.751 1.52 0 2.752 1.233 2.752 2.751 0 1.519-1.233 2.753-2.752 2.753zM9.492 27.269h-4.752v-15.269h4.752zM29.633 0h-27.272c-1.305 0-2.361 1.032-2.361 2.305v27.389c0 1.275 1.056 2.305 2.361 2.305h27.268c1.304 0 2.371-1.031 2.371-2.305v-27.389c0-1.273-1.067-2.305-2.371-2.305z"></path>
</symbol>
<symbol id="icon-spotify"  viewBox="0 0 36 32" >
<title>Spotify Podcast</title>
<path  d="M16 0c-8.8 0-16 7.2-16 16s7.2 16 16 16 16-7.2 16-16-7.12-16-16-16zM23.361 23.12c-0.32 0.479-0.88 0.64-1.361 0.32-3.76-2.32-8.48-2.801-14.081-1.521-0.557 0.163-1.039-0.239-1.199-0.719-0.16-0.561 0.24-1.040 0.72-1.2 6.080-1.361 11.36-0.8 15.52 1.76 0.56 0.24 0.639 0.879 0.401 1.36zM25.281 18.72c-0.401 0.56-1.121 0.8-1.683 0.4-4.319-2.64-10.879-3.44-15.919-1.84-0.639 0.16-1.36-0.16-1.52-0.8s0.16-1.361 0.8-1.521c5.84-1.759 13.040-0.877 18 2.161 0.481 0.241 0.72 1.040 0.321 1.6zM25.441 14.24c-5.121-3.040-13.681-3.36-18.561-1.839-0.8 0.239-1.6-0.241-1.84-0.961-0.24-0.801 0.24-1.6 0.96-1.841 5.68-1.68 15.040-1.36 20.961 2.161 0.719 0.4 0.959 1.36 0.559 2.080-0.399 0.561-1.36 0.799-2.079 0.4z"></path>
</symbol>
<symbol id="icon-spreaker"  viewBox="0 0 32 32" >
<title>Spreaker Podcast</title>
<path  d="M19.487 0l-7.52 8.72-11.261-2.429 11.573 9.829-11.383 9.951 11.215-2.645 7.68 8.575 0.947-11.468 10.557-4.644-10.617-4.44-1.183-11.448z"></path>
</symbol>
<symbol id="icon-twitter" viewBox="0 0 32 32" >
<title>Twitter Link</title>
<path  d="M31.939 6.092c-1.18 0.519-2.44 0.872-3.767 1.033 1.352-0.815 2.392-2.099 2.884-3.631-1.268 0.74-2.673 1.279-4.169 1.579-1.195-1.279-2.897-2.079-4.788-2.079-3.623 0-6.56 2.937-6.56 6.556 0 0.52 0.060 1.020 0.169 1.499-5.453-0.257-10.287-2.876-13.521-6.835-0.569 0.963-0.888 2.081-0.888 3.3 0 2.28 1.16 4.284 2.917 5.461-1.076-0.035-2.088-0.331-2.971-0.821v0.081c0 3.18 2.257 5.832 5.261 6.436-0.551 0.148-1.132 0.228-1.728 0.228-0.419 0-0.82-0.040-1.221-0.115 0.841 2.604 3.26 4.503 6.139 4.556-2.24 1.759-5.079 2.807-8.136 2.807-0.52 0-1.039-0.031-1.56-0.089 2.919 1.859 6.357 2.945 10.076 2.945 12.072 0 18.665-9.995 18.665-18.648 0-0.279 0-0.56-0.020-0.84 1.281-0.919 2.4-2.080 3.28-3.397z"></path>
</symbol>
<symbol id="icon-youtube" viewBox="0 0 32 32" >
<title>Youtube Link</title>
<path  d="M31.327 8.273c-0.386-1.353-1.431-2.398-2.756-2.777l-0.028-0.007c-2.493-0.668-12.528-0.668-12.528-0.668s-10.009-0.013-12.528 0.668c-1.353 0.386-2.398 1.431-2.777 2.756l-0.007 0.028c-0.443 2.281-0.696 4.903-0.696 7.585 0 0.054 0 0.109 0 0.163l-0-0.008c-0 0.037-0 0.082-0 0.126 0 2.682 0.253 5.304 0.737 7.845l-0.041-0.26c0.386 1.353 1.431 2.398 2.756 2.777l0.028 0.007c2.491 0.669 12.528 0.669 12.528 0.669s10.008 0 12.528-0.669c1.353-0.386 2.398-1.431 2.777-2.756l0.007-0.028c0.425-2.233 0.668-4.803 0.668-7.429 0-0.099-0-0.198-0.001-0.297l0 0.015c0.001-0.092 0.001-0.201 0.001-0.31 0-2.626-0.243-5.196-0.708-7.687l0.040 0.258zM12.812 20.801v-9.591l8.352 4.803z"></path>
</symbol>
<symbol id="icon-call"  viewBox="0 0 24 24" >
<title>Phone Number</title>
<path d="M20.016 15.375q0.422 0 0.703 0.281t0.281 0.703v3.469q0 1.172-0.984 1.172-6.984 0-12-5.016t-5.016-12q0-0.984 1.172-0.984h3.469q0.422 0 0.703 0.281t0.281 0.703q0 1.828 0.563 3.516 0.188 0.609-0.234 1.031l-1.922 1.688q2.156 4.5 6.891 6.797l1.547-1.969q0.281-0.281 0.703-0.281 0.234 0 0.328 0.047 1.688 0.563 3.516 0.563z"></path>
</symbol>
<symbol id="icon-email"  viewBox="0 0 24 24" >
<title>Email</title>
<path d="M12 11.016l8.016-5.016h-16.031zM20.016 18v-9.984l-8.016 4.969-8.016-4.969v9.984h16.031zM20.016 3.984q0.797 0 1.383 0.609t0.586 1.406v12q0 0.797-0.586 1.406t-1.383 0.609h-16.031q-0.797 0-1.383-0.609t-0.586-1.406v-12q0-0.797 0.586-1.406t1.383-0.609h16.031z"></path>
</symbol>
</svg>
