<?xml version="1.0" encoding="UTF-8" standalone="no"?>
<!-- Created with Inkscape (http://www.inkscape.org/) -->

<svg
   xmlns:dc="http://purl.org/dc/elements/1.1/"
   xmlns:cc="http://creativecommons.org/ns#"
   xmlns:rdf="http://www.w3.org/1999/02/22-rdf-syntax-ns#"
   xmlns:svg="http://www.w3.org/2000/svg"
   xmlns="http://www.w3.org/2000/svg"
   xmlns:sodipodi="http://sodipodi.sourceforge.net/DTD/sodipodi-0.dtd"
   xmlns:inkscape="http://www.inkscape.org/namespaces/inkscape"
   width="22.10136mm"
   height="26.979145mm"
   viewBox="0 0 22.10136 26.979145"
   version="1.1"
   id="svg378"
   inkscape:version="0.92.5 (2060ec1f9f, 2020-04-08)"
   sodipodi:docname="lens.svg">
  <defs
     id="defs372" />
  <sodipodi:namedview
     id="base"
     pagecolor="#ffffff"
     bordercolor="#666666"
     borderopacity="1.0"
     inkscape:pageopacity="0.0"
     inkscape:pageshadow="2"
     inkscape:zoom="2.8"
     inkscape:cx="65.154854"
     inkscape:cy="8.2294734"
     inkscape:document-units="mm"
     inkscape:current-layer="layer1"
     showgrid="false"
     inkscape:window-width="1920"
     inkscape:window-height="1016"
     inkscape:window-x="1366"
     inkscape:window-y="27"
     inkscape:window-maximized="1" />
  <metadata
     id="metadata375">
    <rdf:RDF>
      <cc:Work
         rdf:about="">
        <dc:format>image/svg+xml</dc:format>
        <dc:type
           rdf:resource="http://purl.org/dc/dcmitype/StillImage" />
        <dc:title></dc:title>
      </cc:Work>
    </rdf:RDF>
  </metadata>
  <g
     inkscape:label="Layer 1"
     inkscape:groupmode="layer"
     id="layer1"
     transform="translate(-87.223129,-68.819951)">
    <g
       style="clip-rule:evenodd;fill-rule:evenodd;image-rendering:optimizeQuality;shape-rendering:geometricPrecision;text-rendering:geometricPrecision"
       id="_1686488064384"
       transform="matrix(0.01,0,0,0.01,55.302725,7.4041048)">
      <path
         class="fil2"
         d="m 5306,6518 c -32,-54 -114,-144 -170,-182 -19,-12 -62,-14 -97,-32 -77,-38 -133,-66 -234,-96 -106,-31 -187,-62 -300,-32 -222,-76 -408,-15 -555,75 -89,54 -259,201 -320,278 -84,103 -126,322 -129,480 0,42 1,110 11,161 43,224 141,347 267,480 -38,48 -67,104 -96,161 78,81 183,137 342,138 42,-50 36,-149 85,-192 198,25 329,113 534,96 286,-23 650,-317 727,-609 62,-239 27,-575 -65,-726 z M 4185,7575 c -214,-52 -470,-203 -491,-416 -29,-285 194,-581 373,-726 67,-55 136,-107 171,-118 85,-25 216,3 278,-43 -2,-9 4,-10 11,-10 240,55 421,170 512,374 0,176 3,334 -42,470 -46,136 -166,291 -278,363 -124,79 -361,149 -534,106 z m 1068,-534 c -31,186 -137,383 -267,503 -106,96 -186,151 -320,170 327,-152 522,-439 566,-876 39,58 32,138 21,203 z"
         id="path627"
         inkscape:connector-curvature="0"
         style="fill:#253f60" />
      <path
         class="fil2"
         d="m 4772,6443 c -81,-55 -284,-89 -416,-64 -236,45 -357,173 -459,342 -54,89 -122,203 -129,310 -12,208 125,335 235,406 80,51 172,97 278,96 351,-4 671,-383 652,-759 -8,-141 -75,-273 -161,-331 z m -10,534 c -43,193 -237,420 -470,417 -144,-2 -338,-145 -363,-288 -29,-164 65,-312 128,-406 36,-55 74,-99 117,-129 125,-65 404,-75 524,22 69,56 96,239 64,384 z"
         id="path629"
         inkscape:connector-curvature="0"
         style="fill:#253f60" />
      <path
         class="fil2"
         d="m 4399,6603 c -78,-17 -131,48 -214,65 -40,56 -86,106 -75,213 119,113 374,-27 385,-128 7,-66 -62,-142 -96,-150 z m -193,235 c 8,-79 82,-144 171,-106 -29,63 -88,97 -171,106 z"
         id="path631"
         inkscape:connector-curvature="0"
         style="fill:#253f60" />
      <path
         class="fil2"
         d="m 3619,7864 c -60,102 -125,214 -203,352 -67,118 -167,218 -203,310 -119,306 301,403 449,224 66,-80 88,-255 149,-373 73,-142 136,-255 182,-353 -165,-9 -258,-88 -364,-160 -2,-2 -7,1 -10,0 z"
         id="path633"
         inkscape:connector-curvature="0"
         style="fill:#253f60" />
    </g>
  </g>
</svg>
