<?xml version="1.0" encoding="UTF-8" standalone="no"?>
<!-- Created with Inkscape (http://www.inkscape.org/) -->

<svg
   xmlns:dc="http://purl.org/dc/elements/1.1/"
   xmlns:cc="http://creativecommons.org/ns#"
   xmlns:rdf="http://www.w3.org/1999/02/22-rdf-syntax-ns#"
   xmlns:svg="http://www.w3.org/2000/svg"
   xmlns="http://www.w3.org/2000/svg"
   xmlns:sodipodi="http://sodipodi.sourceforge.net/DTD/sodipodi-0.dtd"
   xmlns:inkscape="http://www.inkscape.org/namespaces/inkscape"
   width="21.701229mm"
   height="25.53079mm"
   viewBox="0 0 21.701229 25.530791"
   version="1.1"
   id="svg378"
   inkscape:version="0.92.5 (2060ec1f9f, 2020-04-08)"
   sodipodi:docname="muscle.svg">
  <defs
     id="defs372" />
  <sodipodi:namedview
     id="base"
     pagecolor="#ffffff"
     bordercolor="#666666"
     borderopacity="1.0"
     inkscape:pageopacity="0.0"
     inkscape:pageshadow="2"
     inkscape:zoom="2.8"
     inkscape:cx="78.428622"
     inkscape:cy="6.0066339"
     inkscape:document-units="mm"
     inkscape:current-layer="layer1"
     showgrid="false"
     inkscape:window-width="1920"
     inkscape:window-height="1016"
     inkscape:window-x="1366"
     inkscape:window-y="27"
     inkscape:window-maximized="1" />
  <metadata
     id="metadata375">
    <rdf:RDF>
      <cc:Work
         rdf:about="">
        <dc:format>image/svg+xml</dc:format>
        <dc:type
           rdf:resource="http://purl.org/dc/dcmitype/StillImage" />
        <dc:title></dc:title>
      </cc:Work>
    </rdf:RDF>
  </metadata>
  <g
     inkscape:label="Layer 1"
     inkscape:groupmode="layer"
     id="layer1"
     transform="translate(-83.711111,-69.680178)">
    <g
       transform="matrix(0.01,0,0,0.01,-41.477767,-126.09261)"
       style="clip-rule:evenodd;fill-rule:evenodd;image-rendering:optimizeQuality;shape-rendering:geometricPrecision;text-rendering:geometricPrecision"
       id="_1686488068256">
      <path
         class="fil2"
         d="m 14689,20026 c -1,-85 -17,-193 -63,-265 -28,-45 -68,-62 -117,-94 -33,-22 -68,-55 -86,-62 -113,-50 -284,-31 -383,46 -74,-134 -273,-39 -328,47 -223,-139 -365,171 -297,368 25,70 86,95 109,148 -124,40 -138,230 -54,320 104,112 330,65 476,32 34,226 -7,444 -39,648 -52,-45 -115,-72 -179,-117 -59,-42 -128,-119 -196,-133 -236,-49 -455,-34 -641,47 -140,61 -248,147 -328,242 -25,30 -65,64 -31,102 64,19 109,-34 148,-63 132,-96 284,-198 493,-203 45,-1 97,11 156,16 49,4 117,-5 164,8 31,8 77,46 125,70 47,23 101,35 141,55 57,28 113,116 187,101 43,-8 73,-82 94,-140 45,-121 72,-268 86,-383 11,-91 26,-254 -15,-313 -14,-19 -93,-67 -141,-70 -30,-2 -72,20 -117,23 -114,9 -303,24 -305,-70 -1,-56 89,-92 148,-117 64,-28 135,-66 196,-71 36,-2 78,17 117,16 61,-1 127,-44 148,0 -60,59 -327,17 -343,102 -19,96 129,85 203,78 166,-17 295,-56 305,-188 109,-16 164,-86 148,-226 -32,-45 -51,-105 -125,-125 -64,-18 -173,-10 -156,78 15,84 158,18 164,125 -56,41 -156,29 -203,0 -49,-31 -111,-164 -94,-235 16,-67 127,-131 211,-132 110,-3 250,101 273,148 40,82 30,205 8,305 -32,149 -100,299 -141,469 -41,176 -33,375 -54,578 -11,102 -37,202 -47,297 -11,104 -23,201 -47,297 -59,39 -158,105 -234,125 -107,28 -254,71 -360,78 -67,4 -136,-10 -203,-16 -146,-12 -274,-27 -406,-39 -70,-6 -148,-2 -211,-15 -60,-13 -222,-101 -235,7 -6,57 105,126 164,149 169,65 478,44 711,55 274,12 501,-57 680,-149 57,-29 119,-49 157,-78 117,-91 163,-309 195,-492 43,-253 74,-614 39,-868 65,-143 134,-339 133,-516 z m -954,86 c -94,51 -124,-57 -172,-101 2,-108 1,-218 102,-227 7,4 14,7 16,16 -9,78 -18,160 8,226 14,39 52,56 46,86 z m 235,-54 c -217,66 -202,-375 0,-344 -74,82 -45,252 0,344 z"
         id="path611"
         inkscape:connector-curvature="0"
         style="fill:#253f60" />
      <path
         class="fil2"
         d="m 13134,20792 c 6,-69 -19,-106 -47,-140 -166,-8 -53,264 47,140 z"
         id="path613"
         inkscape:connector-curvature="0"
         style="fill:#253f60" />
      <path
         class="fil2"
         d="m 12876,20847 c 50,-121 -155,-189 -141,-63 5,49 70,89 141,63 z"
         id="path615"
         inkscape:connector-curvature="0"
         style="fill:#253f60" />
      <path
         class="fil2"
         d="m 13384,20878 c 46,-6 70,-68 47,-133 -126,-105 -180,151 -47,133 z"
         id="path617"
         inkscape:connector-curvature="0"
         style="fill:#253f60" />
    </g>
  </g>
</svg>
