<?xml version="1.0" encoding="UTF-8" standalone="no"?>
<!-- Created with Inkscape (http://www.inkscape.org/) -->

<svg
   xmlns:dc="http://purl.org/dc/elements/1.1/"
   xmlns:cc="http://creativecommons.org/ns#"
   xmlns:rdf="http://www.w3.org/1999/02/22-rdf-syntax-ns#"
   xmlns:svg="http://www.w3.org/2000/svg"
   xmlns="http://www.w3.org/2000/svg"
   xmlns:sodipodi="http://sodipodi.sourceforge.net/DTD/sodipodi-0.dtd"
   xmlns:inkscape="http://www.inkscape.org/namespaces/inkscape"
   width="26.929911mm"
   height="21.285631mm"
   viewBox="0 0 26.929911 21.285632"
   version="1.1"
   id="svg378"
   inkscape:version="0.92.5 (2060ec1f9f, 2020-04-08)"
   sodipodi:docname="telescope.svg">
  <defs
     id="defs372" />
  <sodipodi:namedview
     id="base"
     pagecolor="#ffffff"
     bordercolor="#666666"
     borderopacity="1.0"
     inkscape:pageopacity="0.0"
     inkscape:pageshadow="2"
     inkscape:zoom="2.8"
     inkscape:cx="138.60551"
     inkscape:cy="3.7314469"
     inkscape:document-units="mm"
     inkscape:current-layer="layer1"
     showgrid="false"
     inkscape:window-width="1920"
     inkscape:window-height="1016"
     inkscape:window-x="1366"
     inkscape:window-y="27"
     inkscape:window-maximized="1" />
  <metadata
     id="metadata375">
    <rdf:RDF>
      <cc:Work
         rdf:about="">
        <dc:format>image/svg+xml</dc:format>
        <dc:type
           rdf:resource="http://purl.org/dc/dcmitype/StillImage" />
        <dc:title></dc:title>
      </cc:Work>
    </rdf:RDF>
  </metadata>
  <g
     inkscape:label="Layer 1"
     inkscape:groupmode="layer"
     id="layer1"
     transform="translate(-67.78931,-73.323361)">
    <path
       class="fil2"
       d="m 92.476169,76.587898 c -0.82,-0.13 -1.38,0.42 -2.45,0.27 -0.63,-0.76 -0.91,-1.88 -2.01,-2.1 -1.09,-0.23 -2.31,0.44 -3.67,0.26 -0.540005,-0.31 -0.640005,-1.17 -1.320005,-1.49 -0.83,-0.4 -2.35,-0.09 -3.500001,-0.09 -2.57,0 -5.85,-0.3 -7.780001,0.09 -0.35,0.2 -0.28,0.55 -0.61,0.79 -0.26,0.18 -0.69,0.15 -0.97,0.35 -0.5,0.36 -1.15,1.5 -1.57,2.54 -1.14,2.800001 -1.35,8.780001 1.23,9.880001 0.34,0.14 0.87,0.2 1.31,0.26 2.500001,0.38 5.450001,0.35 8.220001,0.26 -0.48,0.970001 -0.9,1.780001 -1.49,2.890001 -0.31,0.6 -1.58,2.56 -0.35,2.98 0.86,0.28 1.39,-0.56 1.66,-1.05 0.75,-1.34 1.12,-2.5 1.670001,-3.77 0.23,-0.550001 0.349999,-1.580001 1.22,-1.480001 -0.39,1.57 -0.41,3.050001 -0.61,4.980001 -0.09,0.82 -0.49,2.5 0.7,2.45 0.82,-0.03 0.93,-1.44 1.05,-2.36 0.13,-1.05 0.23,-2.3 0.26,-3.15 0.04,-0.850001 -0.16,-2.130001 0.18,-2.710001 0.679995,1.55 0.579995,4.210001 0.869995,6.040001 0.12001,0.73 0.41001,1.83 1.22001,1.75 1.5,-0.16 0.13,-3.54 0,-4.11 -0.2,-0.94 -0.18001,-1.720001 -0.35,-2.450001 -0.17,-0.77 -0.46,-1.44 -0.52001,-2.28 1.37001,-0.13 2.69001,0.15 3.67001,-0.17 0.94,-0.31 1.1,-1.17 1.75,-1.67 0.79,-0.05 1.36,-0.17 1.93,-0.26 0.53,-0.08 1.23,-0.06 1.75,-0.43 1.76,-1.28 0.09,-5.960001 -1.49,-6.220001 z m -21.600007,8.490001 c -0.34,0.27 -0.88,-0.36 -1.05,-0.79 -0.11,-0.26 -0.16,-0.67 -0.18,-0.87 -0.18,-2.33 0.64,-5.490001 1.14,-7.260001 0.880001,-0.22 1.22,-0.78 1.920001,-0.97 0.74,-0.2 -0.35,0.91 -0.440001,1.05 -1.19,1.94 -1.94,5.800001 -1.39,8.840001 z m 3.320001,-6.830001 c -0.51,0.43 -0.76,1.11 -0.96,1.840001 -0.790001,-0.430001 0.05,-2.960001 0.52,-3.320001 0.06,0 0.12,0 0.18,0 0.58,0.2 0.18,0.85 0.26,1.48 z m 9.100001,3.590001 c -0.15,1.6 -1.01,2.81 -1.4,3.85 -2.370001,0.26 -5.170001,0.08 -7.530001,0.35 -0.32,-0.21 0.19,-0.5 0.27,-0.61 1.36,-2.09 2.67,-7.850001 0.87,-10.670001 2.45,0.04 4.58,-0.14 6.820001,0.08 1.02,1.59 1.21,4.43 0.97,7.000001 z m 5.590005,-0.96 c -0.13,1.22 -0.66,2.21 -1.22,2.89 -1.02,0.03 -1.84,0.26 -2.80001,0.35 0.70001,-2 0.75001,-5.610001 0.09,-7.700001 1.12,0.04 2.07,-0.09 2.97,-0.26 0.36,0.27 0.37,0.88 0.53,1.39 0.27,0.87 0.59,1.93 0.43,3.330001 z m 3.59,0.26 c -0.52,0.12 -1.14,0.15 -1.66,0.26 0.01,-1.18 0.02,-2.350001 -0.18,-3.320001 0.54,0 0.93,0.17 1.32,-0.09 0.83,0.5 0.96,2.100001 0.52,3.150001 z"
       id="path609"
       inkscape:connector-curvature="0"
       style="clip-rule:evenodd;fill:#253f60;fill-rule:evenodd;stroke-width:0.01;image-rendering:optimizeQuality;shape-rendering:geometricPrecision;text-rendering:geometricPrecision" />
  </g>
</svg>
