<?xml version="1.0" encoding="UTF-8" standalone="no"?>
<svg
   xmlns:dc="http://purl.org/dc/elements/1.1/"
   xmlns:cc="http://creativecommons.org/ns#"
   xmlns:rdf="http://www.w3.org/1999/02/22-rdf-syntax-ns#"
   xmlns:svg="http://www.w3.org/2000/svg"
   xmlns="http://www.w3.org/2000/svg"
   xmlns:sodipodi="http://sodipodi.sourceforge.net/DTD/sodipodi-0.dtd"
   xmlns:inkscape="http://www.inkscape.org/namespaces/inkscape"
   xml:space="preserve"
   width="50.189999mm"
   height="28.549999mm"
   version="1.1"
   style="clip-rule:evenodd;fill-rule:evenodd;image-rendering:optimizeQuality;shape-rendering:geometricPrecision;text-rendering:geometricPrecision"
   viewBox="0 0 5018.9999 2854.9999"
   id="svg47"
   sodipodi:docname="icona2_ok.svg"
   inkscape:version="1.0.1 (3bc2e813f5, 2020-09-07)"><metadata
   id="metadata51"><rdf:RDF><cc:Work
       rdf:about=""><dc:format>image/svg+xml</dc:format><dc:type
         rdf:resource="http://purl.org/dc/dcmitype/StillImage" /><dc:title></dc:title></cc:Work></rdf:RDF></metadata><sodipodi:namedview
   pagecolor="#ffffff"
   bordercolor="#666666"
   borderopacity="1"
   objecttolerance="10"
   gridtolerance="10"
   guidetolerance="10"
   inkscape:pageopacity="0"
   inkscape:pageshadow="2"
   inkscape:window-width="1920"
   inkscape:window-height="1017"
   id="namedview49"
   showgrid="false"
   inkscape:zoom="0.75722503"
   inkscape:cx="100.57323"
   inkscape:cy="97.285041"
   inkscape:window-x="-8"
   inkscape:window-y="-8"
   inkscape:window-maximized="1"
   inkscape:current-layer="svg47" />
 <defs
   id="defs38">
  <style
   type="text/css"
   id="style36">
   <![CDATA[
    .fil0 {fill:#253F60}
   ]]>
  </style>
 </defs>
 <g
   id="Livello_x0020_1"
   transform="translate(-7839,-12276)">
  <metadata
   id="CorelCorpID_0Corel-Layer" />
  <g
   id="_2196524286032">
   <path
   class="fil0"
   d="m 8517,13470 h 1109 c 55,0 97,24 114,36 207,156 346,371 418,653 55,213 89,537 104,972 h -391 c -8,-224 -18,-391 -31,-500 -16,-131 -45,-253 -88,-368 -6,-16 -25,-25 -42,-19 -13,5 -21,17 -21,31 v 856 H 8398 v -857 c 0,-15 -11,-26 -26,-26 -11,0 -20,7 -24,17 -43,114 -72,236 -87,366 -14,109 -24,276 -31,500 h -391 c 14,-435 49,-759 103,-972 77,-299 229,-523 456,-673 18,-11 57,-16 119,-16 z m 527,-97 c -303,0 -549,-245 -549,-548 0,-303 246,-549 549,-549 302,0 548,246 548,549 0,303 -246,548 -548,548 z"
   id="path41" />
   <path
   class="fil0"
   d="m 11113,13470 h 1109 c 55,0 97,24 114,36 207,156 346,371 418,653 55,213 89,537 104,972 h -391 c -7,-224 -18,-391 -31,-500 -16,-131 -45,-253 -88,-368 -6,-16 -25,-25 -42,-19 -13,5 -21,17 -21,31 v 856 h -1291 v -857 c 0,-15 -11,-26 -26,-26 -10,0 -20,7 -24,17 -42,114 -72,236 -87,366 -14,109 -24,276 -31,500 h -391 c 14,-435 49,-759 103,-972 77,-299 229,-523 456,-673 18,-11 57,-16 119,-16 z m 527,-97 c -303,0 -549,-245 -549,-548 0,-303 246,-549 549,-549 303,0 548,246 548,549 0,303 -245,548 -548,548 z"
   id="path43" />
  </g>
 </g>
</svg>
