<?xml version="1.0" encoding="UTF-8" standalone="no"?>
<svg
   xmlns:dc="http://purl.org/dc/elements/1.1/"
   xmlns:cc="http://creativecommons.org/ns#"
   xmlns:rdf="http://www.w3.org/1999/02/22-rdf-syntax-ns#"
   xmlns:svg="http://www.w3.org/2000/svg"
   xmlns="http://www.w3.org/2000/svg"
   xmlns:sodipodi="http://sodipodi.sourceforge.net/DTD/sodipodi-0.dtd"
   xmlns:inkscape="http://www.inkscape.org/namespaces/inkscape"
   xml:space="preserve"
   width="35.200001mm"
   height="40.41mm"
   version="1.1"
   style="clip-rule:evenodd;fill-rule:evenodd;image-rendering:optimizeQuality;shape-rendering:geometricPrecision;text-rendering:geometricPrecision"
   viewBox="0 0 3520.0001 4041"
   id="svg75"
   sodipodi:docname="icona3_ok.svg"
   inkscape:version="1.0.1 (3bc2e813f5, 2020-09-07)"><metadata
   id="metadata79"><rdf:RDF><cc:Work
       rdf:about=""><dc:format>image/svg+xml</dc:format><dc:type
         rdf:resource="http://purl.org/dc/dcmitype/StillImage" /><dc:title></dc:title></cc:Work></rdf:RDF></metadata><sodipodi:namedview
   pagecolor="#ffffff"
   bordercolor="#666666"
   borderopacity="1"
   objecttolerance="10"
   gridtolerance="10"
   guidetolerance="10"
   inkscape:pageopacity="0"
   inkscape:pageshadow="2"
   inkscape:window-width="1920"
   inkscape:window-height="1017"
   id="namedview77"
   showgrid="false"
   inkscape:zoom="0.75722503"
   inkscape:cx="66.519686"
   inkscape:cy="-199.63464"
   inkscape:window-x="-8"
   inkscape:window-y="-8"
   inkscape:window-maximized="1"
   inkscape:current-layer="svg75" />
 <defs
   id="defs69">
  <style
   type="text/css"
   id="style67">
   <![CDATA[
    .fil0 {fill:#253F60}
   ]]>
  </style>
 </defs>
 <g
   id="Livello_x0020_1"
   transform="translate(-8740,-20132)">
  <metadata
   id="CorelCorpID_0Corel-Layer" />
  <path
   class="fil0"
   d="m 11970,22638 -65,-859 c 130,-44 225,-166 225,-311 0,-181 -148,-329 -329,-329 -31,0 -61,6 -90,14 l -226,-491 c 43,-56 70,-125 70,-201 0,-181 -148,-329 -329,-329 -169,0 -307,128 -325,292 l -1044,114 c -48,-134 -175,-230 -326,-230 -192,0 -348,156 -348,348 0,106 49,200 123,264 l -198,446 c -13,-2 -26,-4 -39,-4 -182,0 -329,147 -329,329 0,167 126,304 288,325 v 514 c -162,20 -288,157 -288,324 0,181 147,329 329,329 58,0 112,-16 159,-43 l 675,202 c -8,28 -13,57 -13,88 0,181 147,329 329,329 117,0 219,-63 278,-156 l 592,144 c -10,30 -16,63 -16,97 0,181 147,329 328,329 182,0 329,-148 329,-329 0,-97 -43,-184 -109,-244 l 258,-314 c 17,3 34,5 52,5 182,0 329,-147 329,-328 0,-168 -127,-306 -290,-325 z m -2578,163 c -10,-66 -41,-125 -85,-172 l 904,-823 c 58,53 135,86 219,86 19,0 38,-3 56,-6 l 213,351 c -73,54 -122,137 -131,232 z m 2085,-1287 c 9,68 39,128 83,176 l -536,510 c -40,-17 -84,-27 -130,-27 -44,0 -85,8 -123,24 l -204,-336 c 102,-47 175,-145 188,-261 z m 200,1243 -459,-215 c 2,-13 4,-27 4,-41 0,-104 -49,-196 -125,-256 l 526,-501 c 52,33 113,53 178,53 8,0 15,-2 23,-2 l 63,843 c -85,12 -159,55 -210,119 z m -201,-1326 -722,86 c -10,-72 -42,-137 -91,-186 l 465,-557 c 31,9 63,16 98,16 74,0 141,-25 196,-67 l 214,463 c -87,51 -148,140 -160,245 z m -426,-693 -453,543 c -49,-29 -106,-47 -167,-47 -61,0 -118,18 -167,47 l -441,-435 c 36,-55 57,-120 57,-190 0,-13 -2,-25 -4,-38 l 1026,-111 c 14,97 69,181 149,231 z m -1519,266 c 93,0 176,-36 238,-95 l 428,423 c -51,51 -84,120 -92,195 l -712,116 c -17,-117 -96,-215 -203,-257 l 186,-420 c 47,24 99,38 155,38 z m -137,722 712,-115 c 7,48 24,94 50,133 l -913,832 c -40,-24 -85,-40 -133,-46 v -514 c 150,-19 268,-139 284,-290 z m 0,1160 1176,-332 c 14,84 59,157 124,207 l -320,381 c -47,-25 -99,-41 -156,-41 -121,0 -226,67 -283,165 l -627,-188 c 48,-51 79,-118 86,-192 z m 1047,303 325,-385 c 39,17 82,26 128,26 40,0 78,-8 114,-22 l 265,733 c -62,27 -114,72 -150,129 l -592,-143 c 10,-31 16,-63 16,-97 0,-95 -41,-180 -106,-241 z m 960,326 c -16,0 -32,2 -48,5 l -271,-750 c 52,-36 92,-87 116,-146 l 434,203 c -19,42 -30,87 -30,136 0,132 79,245 191,297 l -241,293 c -45,-23 -96,-38 -151,-38 z"
   id="path72" />
 </g>
</svg>
